<svg xmlns="http://www.w3.org/2000/svg" xmlns:xlink="http://www.w3.org/1999/xlink" fill="none" version="1.1" width="24" height="24" viewBox="0 0 24 24"><defs><clipPath id="master_svg0_0_207"><rect x="0" y="0" width="24" height="24" rx="0"/></clipPath></defs><g clip-path="url(#master_svg0_0_207)"><g><path d="M20,2C20,2,4,2,4,2C2.9,2,2.00999999,2.9,2.00999999,4C2.00999999,4,2,22,2,22C2,22,6,18,6,18C6,18,20,18,20,18C21.1,18,22,17.1,22,16C22,16,22,4,22,4C22,2.9,21.1,2,20,2C20,2,20,2,20,2ZM6,9C6,9,18,9,18,9C18,9,18,11,18,11C18,11,6,11,6,11C6,11,6,9,6,9C6,9,6,9,6,9ZM14,14C14,14,6,14,6,14C6,14,6,12,6,12C6,12,14,12,14,12C14,12,14,14,14,14C14,14,14,14,14,14ZM18,8C18,8,6,8,6,8C6,8,6,6,6,6C6,6,18,6,18,6C18,6,18,8,18,8C18,8,18,8,18,8Z" fill="#002DE3" fill-opacity="1"/></g><g></g></g></svg>