<svg xmlns="http://www.w3.org/2000/svg" xmlns:xlink="http://www.w3.org/1999/xlink" fill="none" version="1.1" width="24" height="24" viewBox="0 0 24 24"><defs><clipPath id="master_svg0_0_144"><rect x="0" y="0" width="24" height="24" rx="0"/></clipPath></defs><g clip-path="url(#master_svg0_0_144)"><g><path d="M20.999999284744263,5.999999046325684C20.999999284744263,5.999999046325684,19.999999284744263,5.999999046325684,19.999999284744263,5.999999046325684C19.999999284744263,5.999999046325684,19.999999284744263,5.999999046325684,19.999999284744263,5.999999046325684C19.999999284744263,5.999999046325684,20.999999284744263,5.999999046325684,20.999999284744263,5.999999046325684C20.999999284744263,5.999999046325684,20.999999284744263,5.999999046325684,20.999999284744263,5.999999046325684ZM20.999999284744263,17.999999046325684C20.999999284744263,17.999999046325684,21.999999284744263,17.999999046325684,21.999999284744263,17.999999046325684C21.999999284744263,17.999999046325684,21.999999284744263,17.999999046325684,21.999999284744263,17.999999046325684C21.999999284744263,17.999999046325684,20.999999284744263,17.999999046325684,20.999999284744263,17.999999046325684C20.999999284744263,17.999999046325684,20.999999284744263,17.999999046325684,20.999999284744263,17.999999046325684ZM19.999999284744263,18.999999046325684C19.999999284744263,18.999999046325684,19.999999284744263,17.999999046325684,19.999999284744263,17.999999046325684C19.999999284744263,17.999999046325684,19.999999284744263,17.999999046325684,19.999999284744263,17.999999046325684C19.999999284744263,17.999999046325684,19.999999284744263,18.999999046325684,19.999999284744263,18.999999046325684C19.999999284744263,18.999999046325684,19.999999284744263,18.999999046325684,19.999999284744263,18.999999046325684ZM14.999999284744263,17.999999046325684C14.447699284744262,17.999999046325684,13.999999284744263,18.44769904632568,13.999999284744263,18.999999046325684C13.999999284744263,19.552299046325686,14.447699284744262,19.999999046325684,14.999999284744263,19.999999046325684C14.999999284744263,19.999999046325684,14.999999284744263,17.999999046325684,14.999999284744263,17.999999046325684C14.999999284744263,17.999999046325684,14.999999284744263,17.999999046325684,14.999999284744263,17.999999046325684ZM3.9999992847442627,4.999999046325684C3.9999992847442627,4.999999046325684,3.9999992847442627,3.9999990463256836,3.9999992847442627,3.9999990463256836C3.9999992847442627,3.9999990463256836,3.9999992847442627,4.999999046325684,3.9999992847442627,4.999999046325684C3.9999992847442627,4.999999046325684,3.9999992847442627,4.999999046325684,3.9999992847442627,4.999999046325684ZM19.999999284744263,4.999999046325684C19.999999284744263,4.999999046325684,19.999999284744263,4.000000046325684,19.999999284744263,4.000000046325684C19.999999284744263,4.000000046325684,19.999999284744263,4.999999046325684,19.999999284744263,4.999999046325684C19.999999284744263,4.999999046325684,19.999999284744263,4.999999046325684,19.999999284744263,4.999999046325684ZM1.9999992847442627,7.333329046325684C1.9999992847442627,7.885619046325683,2.447714284744263,8.333329046325684,2.9999992847442627,8.333329046325684C3.552279284744263,8.333329046325684,3.9999992847442627,7.885619046325683,3.9999992847442627,7.333329046325684C3.9999992847442627,7.333329046325684,1.9999992847442627,7.333329046325684,1.9999992847442627,7.333329046325684C1.9999992847442627,7.333329046325684,1.9999992847442627,7.333329046325684,1.9999992847442627,7.333329046325684ZM2.9999992847442627,5.999999046325684C2.9999992847442627,5.999999046325684,3.9999992847442627,5.999999046325684,3.9999992847442627,5.999999046325684C3.9999992847442627,5.999999046325684,2.9999992847442627,5.999999046325684,2.9999992847442627,5.999999046325684C2.9999992847442627,5.999999046325684,2.9999992847442627,5.999999046325684,2.9999992847442627,5.999999046325684ZM19.999999284744263,5.999999046325684C19.999999284744263,5.999999046325684,19.999999284744263,17.999999046325684,19.999999284744263,17.999999046325684C19.999999284744263,17.999999046325684,21.999999284744263,17.999999046325684,21.999999284744263,17.999999046325684C21.999999284744263,17.999999046325684,21.999999284744263,5.999999046325684,21.999999284744263,5.999999046325684C21.999999284744263,5.999999046325684,19.999999284744263,5.999999046325684,19.999999284744263,5.999999046325684C19.999999284744263,5.999999046325684,19.999999284744263,5.999999046325684,19.999999284744263,5.999999046325684ZM19.999999284744263,17.999999046325684C19.999999284744263,17.999999046325684,14.999999284744263,17.999999046325684,14.999999284744263,17.999999046325684C14.999999284744263,17.999999046325684,14.999999284744263,19.999999046325684,14.999999284744263,19.999999046325684C14.999999284744263,19.999999046325684,19.999999284744263,19.999999046325684,19.999999284744263,19.999999046325684C19.999999284744263,19.999999046325684,19.999999284744263,17.999999046325684,19.999999284744263,17.999999046325684C19.999999284744263,17.999999046325684,19.999999284744263,17.999999046325684,19.999999284744263,17.999999046325684ZM3.9999992847442627,5.999999046325684C3.9999992847442627,5.999999046325684,19.999999284744263,5.999999046325684,19.999999284744263,5.999999046325684C19.999999284744263,5.999999046325684,19.999999284744263,4.000000046325684,19.999999284744263,4.000000046325684C19.999999284744263,4.000000046325684,3.9999992847442627,3.9999990463256836,3.9999992847442627,3.9999990463256836C3.9999992847442627,3.9999990463256836,3.9999992847442627,5.999999046325684,3.9999992847442627,5.999999046325684C3.9999992847442627,5.999999046325684,3.9999992847442627,5.999999046325684,3.9999992847442627,5.999999046325684ZM3.9999992847442627,7.333329046325684C3.9999992847442627,7.333329046325684,3.9999992847442627,5.999999046325684,3.9999992847442627,5.999999046325684C3.9999992847442627,5.999999046325684,1.9999992847442627,5.999999046325684,1.9999992847442627,5.999999046325684C1.9999992847442627,5.999999046325684,1.9999992847442627,7.333329046325684,1.9999992847442627,7.333329046325684C1.9999992847442627,7.333329046325684,3.9999992847442627,7.333329046325684,3.9999992847442627,7.333329046325684C3.9999992847442627,7.333329046325684,3.9999992847442627,7.333329046325684,3.9999992847442627,7.333329046325684ZM3.9999992847442627,3.9999990463256836C2.8954302847442626,3.9999990463256836,1.9999992847442627,4.895429046325684,1.9999992847442627,5.999999046325684C1.9999992847442627,5.999999046325684,3.9999992847442627,5.999999046325684,3.9999992847442627,5.999999046325684C3.9999992847442627,5.999999046325684,3.9999992847442627,5.999999046325684,3.9999992847442627,5.999999046325684C3.9999992847442627,5.999999046325684,3.9999992847442627,3.9999990463256836,3.9999992847442627,3.9999990463256836C3.9999992847442627,3.9999990463256836,3.9999992847442627,3.9999990463256836,3.9999992847442627,3.9999990463256836ZM19.999999284744263,17.999999046325684C19.999999284744263,17.999999046325684,19.999999284744263,17.999999046325684,19.999999284744263,17.999999046325684C19.999999284744263,17.999999046325684,19.999999284744263,19.999999046325684,19.999999284744263,19.999999046325684C21.104599284744264,19.999999046325684,21.999999284744263,19.10459904632568,21.999999284744263,17.999999046325684C21.999999284744263,17.999999046325684,19.999999284744263,17.999999046325684,19.999999284744263,17.999999046325684C19.999999284744263,17.999999046325684,19.999999284744263,17.999999046325684,19.999999284744263,17.999999046325684ZM21.999999284744263,5.999999046325684C21.999999284744263,4.895430046325684,21.104599284744264,4.000000046325684,19.999999284744263,4.000000046325684C19.999999284744263,4.000000046325684,19.999999284744263,5.999999046325684,19.999999284744263,5.999999046325684C19.999999284744263,5.999999046325684,19.999999284744263,5.999999046325684,19.999999284744263,5.999999046325684C19.999999284744263,5.999999046325684,21.999999284744263,5.999999046325684,21.999999284744263,5.999999046325684C21.999999284744263,5.999999046325684,21.999999284744263,5.999999046325684,21.999999284744263,5.999999046325684Z" fill="#FFFFFF" fill-opacity="1"/></g><g><path d="M3,16C2.447715,16,2,16.447715,2,17C2,17.55228,2.447715,18,3,18C3,18,3,16,3,16C3,16,3,16,3,16ZM4,19C4,19.55228,4.44772,20,5,20C5.55228,20,6,19.55228,6,19C6,19,4,19,4,19C4,19,4,19,4,19ZM3,18C3.55228,18,4,18.44772,4,19C4,19,6,19,6,19C6,17.34315,4.65685,16,3,16C3,16,3,18,3,18C3,18,3,18,3,18Z" fill="#FFFFFF" fill-opacity="1"/></g><g><path d="M3,13C2.447715,13,2,13.447715,2,14C2,14.55228,2.447715,15,3,15C3,15,3,13,3,13C3,13,3,13,3,13ZM7,19C7,19.55228,7.44772,20,8,20C8.55228,20,9,19.55228,9,19C9,19,7,19,7,19C7,19,7,19,7,19ZM3,15C5.20914,15,7,16.79086,7,19C7,19,9,19,9,19C9,15.68629,6.31371,13,3,13C3,13,3,15,3,15C3,15,3,15,3,15Z" fill="#FFFFFF" fill-opacity="1"/></g><g><path d="M3,10C2.447715,10,2,10.447715,2,11C2,11.55228,2.447715,12,3,12C3,12,3,10,3,10C3,10,3,10,3,10ZM10,19C10,19.55229,10.44772,20,11,20C11.55229,20,12,19.55229,12,19C12,19,10,19,10,19C10,19,10,19,10,19ZM3,12C6.86599,12,10,15.13401,10,19C10,19,12,19,12,19C12,14.029440000000001,7.97056,10,3,10C3,10,3,12,3,12C3,12,3,12,3,12Z" fill="#FFFFFF" fill-opacity="1"/></g></g></svg>