<svg xmlns="http://www.w3.org/2000/svg" xmlns:xlink="http://www.w3.org/1999/xlink" fill="none" version="1.1" width="24" height="24" viewBox="0 0 24 24"><defs><clipPath id="master_svg0_0_955"><rect x="0" y="0" width="24" height="24" rx="0"/></clipPath></defs><g clip-path="url(#master_svg0_0_955)"><g><path d="M6,20C5.447715,20,5,20.447715,5,21C5,21.55228,5.447715,22,6,22C6,22,6,20,6,20C6,20,6,20,6,20ZM18,22C18.552300000000002,22,19,21.55228,19,21C19,20.447715,18.552300000000002,20,18,20C18,20,18,22,18,22C18,22,18,22,18,22ZM6,22C6,22,18,22,18,22C18,22,18,20,18,20C18,20,6,20,6,20C6,20,6,22,6,22C6,22,6,22,6,22Z" fill="#FFFFFF" fill-opacity="1"/></g><g><path d="M13,3C13,2.447715,12.55228,2,12,2C11.447715,2,11,2.447715,11,3C11,3,13,3,13,3C13,3,13,3,13,3ZM11.000001,17C11.000001,17.552300000000002,11.447716,18,12,18C12.55228,18,13,17.552300000000002,13,17C13,17,11.000001,17,11.000001,17C11.000001,17,11.000001,17,11.000001,17ZM11,3C11,3,11.000001,17,11.000001,17C11.000001,17,13,17,13,17C13,17,13,3,13,3C13,3,11,3,11,3C11,3,11,3,11,3Z" fill="#FFFFFF" fill-opacity="1"/></g><g><path d="M17.707100953674317,12.707110953674317C18.097600953674316,12.316580953674316,18.097600953674316,11.683417953674317,17.707100953674317,11.292892953674317C17.316600953674318,10.902370253674317,16.683400953674315,10.902370253674317,16.292900953674316,11.292892953674317C16.292900953674316,11.292892953674317,17.707100953674317,12.707110953674317,17.707100953674317,12.707110953674317C17.707100953674317,12.707110953674317,17.707100953674317,12.707110953674317,17.707100953674317,12.707110953674317ZM12.000000953674316,17.000000953674316C12.000000953674316,17.000000953674316,11.292890953674316,17.707110953674317,11.292890953674316,17.707110953674317C11.480430953674317,17.894640953674315,11.734780953674317,18.000000953674316,12.000000953674316,18.000000953674316C12.265220953674316,18.000000953674316,12.519570953674316,17.894640953674315,12.707110953674317,17.707110953674317C12.707110953674317,17.707110953674317,12.000000953674316,17.000000953674316,12.000000953674316,17.000000953674316C12.000000953674316,17.000000953674316,12.000000953674316,17.000000953674316,12.000000953674316,17.000000953674316ZM7.7071109536743165,11.292892953674317C7.3165809536743165,10.902370253674317,6.683417953674317,10.902370253674317,6.292892953674317,11.292892953674317C5.902370253674317,11.683416953674316,5.902370253674317,12.316580953674316,6.292892953674317,12.707110953674317C6.292892953674317,12.707110953674317,7.7071109536743165,11.292892953674317,7.7071109536743165,11.292892953674317C7.7071109536743165,11.292892953674317,7.7071109536743165,11.292892953674317,7.7071109536743165,11.292892953674317ZM16.292900953674316,11.292892953674317C16.292900953674316,11.292892953674317,11.292890953674316,16.292890953674316,11.292890953674316,16.292890953674316C11.292890953674316,16.292890953674316,12.707110953674317,17.707110953674317,12.707110953674317,17.707110953674317C12.707110953674317,17.707110953674317,17.707100953674317,12.707110953674317,17.707100953674317,12.707110953674317C17.707100953674317,12.707110953674317,16.292900953674316,11.292892953674317,16.292900953674316,11.292892953674317C16.292900953674316,11.292892953674317,16.292900953674316,11.292892953674317,16.292900953674316,11.292892953674317ZM12.707110953674317,16.292890953674316C12.707110953674317,16.292890953674316,7.7071109536743165,11.292892953674317,7.7071109536743165,11.292892953674317C7.7071109536743165,11.292892953674317,6.292892953674317,12.707110953674317,6.292892953674317,12.707110953674317C6.292892953674317,12.707110953674317,11.292890953674316,17.707110953674317,11.292890953674316,17.707110953674317C11.292890953674316,17.707110953674317,12.707110953674317,16.292890953674316,12.707110953674317,16.292890953674316C12.707110953674317,16.292890953674316,12.707110953674317,16.292890953674316,12.707110953674317,16.292890953674316Z" fill="#FFFFFF" fill-opacity="1"/></g></g></svg>