<svg xmlns="http://www.w3.org/2000/svg" xmlns:xlink="http://www.w3.org/1999/xlink" fill="none" version="1.1" width="24" height="24" viewBox="0 0 24 24"><defs><clipPath id="master_svg0_0_1256"><rect x="0" y="0" width="24" height="24" rx="0"/></clipPath></defs><g clip-path="url(#master_svg0_0_1256)"><g><path d="M4,19C3.447715,19,3,19.447715,3,20C3,20.55228,3.447715,21,4,21C4,21,4,19,4,19C4,19,4,19,4,19ZM20,21C20.5523,21,21,20.55228,21,20C21,19.447715,20.5523,19,20,19C20,19,20,21,20,21C20,21,20,21,20,21ZM4,21C4,21,20,21,20,21C20,21,20,19,20,19C20,19,4,19,4,19C4,19,4,21,4,21C4,21,4,21,4,21Z" fill="#FFFFFF" fill-opacity="1"/></g><g><path d="M8,20.000015326309203C8,20.000015326309203,8,21.000015326309203,8,21.000015326309203C8.26522,21.000015326309203,8.51957,20.894615326309204,8.70711,20.707115326309204C8.70711,20.707115326309204,8,20.000015326309203,8,20.000015326309203C8,20.000015326309203,8,20.000015326309203,8,20.000015326309203ZM4,20.000015326309203C4,20.000015326309203,3,20.000015326309203,3,20.000015326309203C3,20.552315326309206,3.447715,21.000015326309203,4,21.000015326309203C4,21.000015326309203,4,20.000015326309203,4,20.000015326309203C4,20.000015326309203,4,20.000015326309203,4,20.000015326309203ZM4,16.000015326309203C4,16.000015326309203,3.292893,15.292915326309204,3.292893,15.292915326309204C3.105357,15.480415326309204,3,15.734815326309205,3,16.000015326309203C3,16.000015326309203,4,16.000015326309203,4,16.000015326309203C4,16.000015326309203,4,16.000015326309203,4,16.000015326309203ZM15.2929,4.707105326309204C15.2929,4.707105326309204,16,5.414215326309204,16,5.414215326309204C16,5.414215326309204,16,5.414215326309204,16,5.414215326309204C16,5.414215326309204,15.2929,4.707105326309204,15.2929,4.707105326309204C15.2929,4.707105326309204,15.2929,4.707105326309204,15.2929,4.707105326309204ZM16.7071,4.707105326309204C16.7071,4.707105326309204,16,5.414215326309204,16,5.414215326309204C16,5.414215326309204,16,5.414215326309204,16,5.414215326309204C16,5.414215326309204,16.7071,4.707105326309204,16.7071,4.707105326309204C16.7071,4.707105326309204,16.7071,4.707105326309204,16.7071,4.707105326309204ZM19.2929,7.292895326309204C19.2929,7.292895326309204,20,6.585785326309204,20,6.585785326309204C20,6.585785326309204,20,6.585785326309204,20,6.585785326309204C20,6.585785326309204,19.2929,7.292895326309204,19.2929,7.292895326309204C19.2929,7.292895326309204,19.2929,7.292895326309204,19.2929,7.292895326309204ZM19.2929,8.707105326309204C19.2929,8.707105326309204,18.5858,8.000005326309203,18.5858,8.000005326309203C18.5858,8.000005326309203,19.2929,8.707105326309204,19.2929,8.707105326309204C19.2929,8.707105326309204,19.2929,8.707105326309204,19.2929,8.707105326309204ZM8,19.000015326309203C8,19.000015326309203,4,19.000015326309203,4,19.000015326309203C4,19.000015326309203,4,21.000015326309203,4,21.000015326309203C4,21.000015326309203,8,21.000015326309203,8,21.000015326309203C8,21.000015326309203,8,19.000015326309203,8,19.000015326309203C8,19.000015326309203,8,19.000015326309203,8,19.000015326309203ZM5,20.000015326309203C5,20.000015326309203,5,16.000015326309203,5,16.000015326309203C5,16.000015326309203,3,16.000015326309203,3,16.000015326309203C3,16.000015326309203,3,20.000015326309203,3,20.000015326309203C3,20.000015326309203,5,20.000015326309203,5,20.000015326309203C5,20.000015326309203,5,20.000015326309203,5,20.000015326309203ZM4.70711,16.707115326309204C4.70711,16.707115326309204,16,5.414215326309204,16,5.414215326309204C16,5.414215326309204,14.5858,3.999999326309204,14.5858,3.999999326309204C14.5858,3.999999326309204,3.292893,15.292915326309204,3.292893,15.292915326309204C3.292893,15.292915326309204,4.70711,16.707115326309204,4.70711,16.707115326309204C4.70711,16.707115326309204,4.70711,16.707115326309204,4.70711,16.707115326309204ZM16,5.414215326309204C16,5.414215326309204,18.5858,8.000005326309203,18.5858,8.000005326309203C18.5858,8.000005326309203,20,6.585785326309204,20,6.585785326309204C20,6.585785326309204,17.4142,3.999999326309204,17.4142,3.999999326309204C17.4142,3.999999326309204,16,5.414215326309204,16,5.414215326309204C16,5.414215326309204,16,5.414215326309204,16,5.414215326309204ZM18.5858,8.000005326309203C18.5858,8.000005326309203,7.29289,19.292915326309206,7.29289,19.292915326309206C7.29289,19.292915326309206,8.70711,20.707115326309204,8.70711,20.707115326309204C8.70711,20.707115326309204,20,9.414215326309204,20,9.414215326309204C20,9.414215326309204,18.5858,8.000005326309203,18.5858,8.000005326309203C18.5858,8.000005326309203,18.5858,8.000005326309203,18.5858,8.000005326309203ZM18.5858,8.000005326309203C18.5858,8.000005326309203,18.5858,8.000005326309203,18.5858,8.000005326309203C18.5858,8.000005326309203,20,9.414215326309204,20,9.414215326309204C20.781,8.633165326309204,20.781,7.366835326309204,20,6.585785326309204C20,6.585785326309204,18.5858,8.000005326309203,18.5858,8.000005326309203C18.5858,8.000005326309203,18.5858,8.000005326309203,18.5858,8.000005326309203ZM16,5.414215326309204C16,5.414215326309204,16,5.414215326309204,16,5.414215326309204C16,5.414215326309204,17.4142,4.000000326309204,17.4142,4.000000326309204C16.633200000000002,3.218953326309204,15.3668,3.218953326309204,14.5858,4.000000326309204C14.5858,4.000000326309204,16,5.414215326309204,16,5.414215326309204C16,5.414215326309204,16,5.414215326309204,16,5.414215326309204Z" fill="#FFFFFF" fill-opacity="1"/></g><g><path d="M12.707110953674317,7.292892953674317C12.316580953674316,6.902370253674317,11.683417953674317,6.902370253674317,11.292892953674317,7.292892953674317C10.902370253674317,7.683416953674317,10.902370253674317,8.316580953674316,11.292892953674317,8.707110953674317C11.292892953674317,8.707110953674317,12.707110953674317,7.292892953674317,12.707110953674317,7.292892953674317C12.707110953674317,7.292892953674317,12.707110953674317,7.292892953674317,12.707110953674317,7.292892953674317ZM15.292860953674317,12.707070953674316C15.683380953674316,13.097600953674316,16.316550953674316,13.097600953674316,16.707070953674318,12.707070953674316C17.097600953674316,12.316550953674316,17.097600953674316,11.683380953674316,16.707070953674318,11.292860953674317C16.707070953674318,11.292860953674317,15.292860953674317,12.707070953674316,15.292860953674317,12.707070953674316C15.292860953674317,12.707070953674316,15.292860953674317,12.707070953674316,15.292860953674317,12.707070953674316ZM11.292892953674317,8.707110953674317C11.292892953674317,8.707110953674317,15.292860953674317,12.707070953674316,15.292860953674317,12.707070953674316C15.292860953674317,12.707070953674316,16.707070953674318,11.292860953674317,16.707070953674318,11.292860953674317C16.707070953674318,11.292860953674317,12.707110953674317,7.292892953674317,12.707110953674317,7.292892953674317C12.707110953674317,7.292892953674317,11.292892953674317,8.707110953674317,11.292892953674317,8.707110953674317C11.292892953674317,8.707110953674317,11.292892953674317,8.707110953674317,11.292892953674317,8.707110953674317Z" fill="#FFFFFF" fill-opacity="1"/></g></g></svg>