<svg xmlns="http://www.w3.org/2000/svg" xmlns:xlink="http://www.w3.org/1999/xlink" fill="none" version="1.1" width="24" height="24" viewBox="0 0 24 24"><defs><clipPath id="master_svg0_0_1881"><rect x="0" y="0" width="24" height="24" rx="0"/></clipPath></defs><g clip-path="url(#master_svg0_0_1881)"><g><path d="M10,20C10.55228,20,11,19.55229,11,19C11,18.44772,10.55228,18,10,18C10,18,10,20,10,20C10,20,10,20,10,20ZM5,19C5,19,4,19,4,19C4,19.55228,4.447715,20,5,20C5,20,5,19,5,19C5,19,5,19,5,19ZM6,14C6,13.447715,5.55228,13,5,13C4.447715,13,4,13.447715,4,14C4,14,6,14,6,14C6,14,6,14,6,14ZM10,18C10,18,5,18,5,18C5,18,5,20,5,20C5,20,10,20,10,20C10,20,10,18,10,18C10,18,10,18,10,18ZM6,19C6,19,6,14,6,14C6,14,4,14,4,14C4,14,4,19,4,19C4,19,6,19,6,19C6,19,6,19,6,19Z" fill="#FFFFFF" fill-opacity="1"/></g><g><path d="M14,4C13.447715,4,13,4.447715,13,5C13,5.55228,13.447715,6,14,6C14,6,14,4,14,4C14,4,14,4,14,4ZM19,5C19,5,20,5,20,5C20,4.447715,19.55228,4,19,4C19,4,19,5,19,5C19,5,19,5,19,5ZM18,10C18,10.55228,18.44772,11,19,11C19.55228,11,20,10.55228,20,10C20,10,18,10,18,10C18,10,18,10,18,10ZM14,6C14,6,19,6,19,6C19,6,19,4,19,4C19,4,14,4,14,4C14,4,14,6,14,6C14,6,14,6,14,6ZM18,5C18,5,18,10,18,10C18,10,20,10,20,10C20,10,20,5,20,5C20,5,18,5,18,5C18,5,18,5,18,5Z" fill="#FFFFFF" fill-opacity="1"/></g></g></svg>