<svg xmlns="http://www.w3.org/2000/svg" xmlns:xlink="http://www.w3.org/1999/xlink" fill="none" version="1.1" width="24" height="24" viewBox="0 0 24 24"><defs><clipPath id="master_svg0_0_1674"><rect x="0" y="0" width="24" height="24" rx="0"/></clipPath></defs><g clip-path="url(#master_svg0_0_1674)"><g><path d="M19.99999737739563,20.00000238418579C19.99999737739563,20.00000238418579,19.99999737739563,19.00000238418579,19.99999737739563,19.00000238418579C19.99999737739563,19.00000238418579,19.99999737739563,19.00000238418579,19.99999737739563,19.00000238418579C19.99999737739563,19.00000238418579,19.99999737739563,20.00000238418579,19.99999737739563,20.00000238418579C19.99999737739563,20.00000238418579,19.99999737739563,20.00000238418579,19.99999737739563,20.00000238418579ZM3.99999737739563,20.00000238418579C3.99999737739563,20.00000238418579,3.99999737739563,21.00000238418579,3.99999737739563,21.00000238418579C3.99999737739563,21.00000238418579,3.99999737739563,21.00000238418579,3.99999737739563,21.00000238418579C3.99999737739563,21.00000238418579,3.99999737739563,20.00000238418579,3.99999737739563,20.00000238418579C3.99999737739563,20.00000238418579,3.99999737739563,20.00000238418579,3.99999737739563,20.00000238418579ZM2.99999737739563,19.00000238418579C2.99999737739563,19.00000238418579,3.99999737739563,19.00000238418579,3.99999737739563,19.00000238418579C3.99999737739563,19.00000238418579,3.99999737739563,19.00000238418579,3.99999737739563,19.00000238418579C3.99999737739563,19.00000238418579,2.99999737739563,19.00000238418579,2.99999737739563,19.00000238418579C2.99999737739563,19.00000238418579,2.99999737739563,19.00000238418579,2.99999737739563,19.00000238418579ZM2.99999737739563,6.000002384185791C2.99999737739563,6.000002384185791,2.99999737739563,5.000002384185791,2.99999737739563,5.000002384185791C2.73478037739563,5.000002384185791,2.48042737739563,5.105359384185791,2.2928903773956297,5.2928963841857914C2.10535437739563,5.480432384185791,1.9999973773956299,5.734786384185791,1.9999973773956299,6.000002384185791C1.9999973773956299,6.000002384185791,2.99999737739563,6.000002384185791,2.99999737739563,6.000002384185791C2.99999737739563,6.000002384185791,2.99999737739563,6.000002384185791,2.99999737739563,6.000002384185791ZM19.99999737739563,6.000002384185791C19.99999737739563,6.000002384185791,19.99999737739563,5.000002384185791,19.99999737739563,5.000002384185791C19.99999737739563,5.000002384185791,19.99999737739563,5.000002384185791,19.99999737739563,5.000002384185791C19.99999737739563,5.000002384185791,19.99999737739563,6.000002384185791,19.99999737739563,6.000002384185791C19.99999737739563,6.000002384185791,19.99999737739563,6.000002384185791,19.99999737739563,6.000002384185791ZM20.99999737739563,7.000002384185791C20.99999737739563,7.000002384185791,21.99999737739563,7.000002384185791,21.99999737739563,7.000002384185791C21.99999737739563,7.000002384185791,21.99999737739563,7.000002384185791,21.99999737739563,7.000002384185791C21.99999737739563,7.000002384185791,20.99999737739563,7.000002384185791,20.99999737739563,7.000002384185791C20.99999737739563,7.000002384185791,20.99999737739563,7.000002384185791,20.99999737739563,7.000002384185791ZM20.99999737739563,19.00000238418579C20.99999737739563,19.00000238418579,19.99999737739563,19.00000238418579,19.99999737739563,19.00000238418579C19.99999737739563,19.00000238418579,19.99999737739563,19.00000238418579,19.99999737739563,19.00000238418579C19.99999737739563,19.00000238418579,20.99999737739563,19.00000238418579,20.99999737739563,19.00000238418579C20.99999737739563,19.00000238418579,20.99999737739563,19.00000238418579,20.99999737739563,19.00000238418579ZM19.99999737739563,19.00000238418579C19.99999737739563,19.00000238418579,3.99999737739563,19.00000238418579,3.99999737739563,19.00000238418579C3.99999737739563,19.00000238418579,3.99999737739563,21.00000238418579,3.99999737739563,21.00000238418579C3.99999737739563,21.00000238418579,19.99999737739563,21.00000238418579,19.99999737739563,21.00000238418579C19.99999737739563,21.00000238418579,19.99999737739563,19.00000238418579,19.99999737739563,19.00000238418579C19.99999737739563,19.00000238418579,19.99999737739563,19.00000238418579,19.99999737739563,19.00000238418579ZM3.99999737739563,19.00000238418579C3.99999737739563,19.00000238418579,3.99999737739563,6.000002384185791,3.99999737739563,6.000002384185791C3.99999737739563,6.000002384185791,1.9999973773956299,6.000002384185791,1.9999973773956299,6.000002384185791C1.9999973773956299,6.000002384185791,1.9999983773956298,19.00000238418579,1.9999983773956298,19.00000238418579C1.9999983773956298,19.00000238418579,3.99999737739563,19.00000238418579,3.99999737739563,19.00000238418579C3.99999737739563,19.00000238418579,3.99999737739563,19.00000238418579,3.99999737739563,19.00000238418579ZM2.99999737739563,7.000002384185791C2.99999737739563,7.000002384185791,19.99999737739563,7.000002384185791,19.99999737739563,7.000002384185791C19.99999737739563,7.000002384185791,19.99999737739563,5.000002384185791,19.99999737739563,5.000002384185791C19.99999737739563,5.000002384185791,2.99999737739563,5.000002384185791,2.99999737739563,5.000002384185791C2.99999737739563,5.000002384185791,2.99999737739563,7.000002384185791,2.99999737739563,7.000002384185791C2.99999737739563,7.000002384185791,2.99999737739563,7.000002384185791,2.99999737739563,7.000002384185791ZM19.99999737739563,7.000002384185791C19.99999737739563,7.000002384185791,19.99999737739563,7.000002384185791,19.99999737739563,7.000002384185791C19.99999737739563,7.000002384185791,21.99999737739563,7.000002384185791,21.99999737739563,7.000002384185791C21.99999737739563,5.895434384185791,21.10459737739563,5.000002384185791,19.99999737739563,5.000002384185791C19.99999737739563,5.000002384185791,19.99999737739563,7.000002384185791,19.99999737739563,7.000002384185791C19.99999737739563,7.000002384185791,19.99999737739563,7.000002384185791,19.99999737739563,7.000002384185791ZM3.99999737739563,19.00000238418579C3.99999737739563,19.00000238418579,3.99999737739563,19.00000238418579,3.99999737739563,19.00000238418579C3.99999737739563,19.00000238418579,1.9999983773956298,19.00000238418579,1.9999983773956298,19.00000238418579C1.9999983773956298,20.10460238418579,2.89542937739563,21.00000238418579,3.99999737739563,21.00000238418579C3.99999737739563,21.00000238418579,3.99999737739563,19.00000238418579,3.99999737739563,19.00000238418579C3.99999737739563,19.00000238418579,3.99999737739563,19.00000238418579,3.99999737739563,19.00000238418579ZM19.99999737739563,21.00000238418579C21.10459737739563,21.00000238418579,21.99999737739563,20.10460238418579,21.99999737739563,19.00000238418579C21.99999737739563,19.00000238418579,19.99999737739563,19.00000238418579,19.99999737739563,19.00000238418579C19.99999737739563,19.00000238418579,19.99999737739563,19.00000238418579,19.99999737739563,19.00000238418579C19.99999737739563,19.00000238418579,19.99999737739563,21.00000238418579,19.99999737739563,21.00000238418579C19.99999737739563,21.00000238418579,19.99999737739563,21.00000238418579,19.99999737739563,21.00000238418579ZM19.99999737739563,7.000002384185791C19.99999737739563,7.000002384185791,19.99999737739563,19.00000238418579,19.99999737739563,19.00000238418579C19.99999737739563,19.00000238418579,21.99999737739563,19.00000238418579,21.99999737739563,19.00000238418579C21.99999737739563,19.00000238418579,21.99999737739563,7.000002384185791,21.99999737739563,7.000002384185791C21.99999737739563,7.000002384185791,19.99999737739563,7.000002384185791,19.99999737739563,7.000002384185791C19.99999737739563,7.000002384185791,19.99999737739563,7.000002384185791,19.99999737739563,7.000002384185791Z" fill="#FFFFFF" fill-opacity="1"/></g><g><path d="M11.29289,6.70711C11.68342,7.09763,12.3166,7.09763,12.7071,6.70711C13.0976,6.31658,13.0976,5.68342,12.7071,5.29289C12.7071,5.29289,11.29289,6.70711,11.29289,6.70711C11.29289,6.70711,11.29289,6.70711,11.29289,6.70711ZM10.29289,4.29289C10.29289,4.29289,9.58579,5,9.58579,5C9.58579,5,9.58579,5,9.58579,5C9.58579,5,10.29289,4.29289,10.29289,4.29289C10.29289,4.29289,10.29289,4.29289,10.29289,4.29289ZM2,6C2,6.55228,2.447715,7,3,7C3.55228,7,4,6.55228,4,6C4,6,2,6,2,6C2,6,2,6,2,6ZM12.7071,5.29289C12.7071,5.29289,11,3.585786,11,3.585786C11,3.585786,9.58579,5,9.58579,5C9.58579,5,11.29289,6.70711,11.29289,6.70711C11.29289,6.70711,12.7071,5.29289,12.7071,5.29289C12.7071,5.29289,12.7071,5.29289,12.7071,5.29289ZM9.58579,3C9.58579,3,4,3,4,3C4,3,4,5,4,5C4,5,9.58579,5,9.58579,5C9.58579,5,9.58579,3,9.58579,3C9.58579,3,9.58579,3,9.58579,3ZM2,5C2,5,2,6,2,6C2,6,4,6,4,6C4,6,4,5,4,5C4,5,2,5,2,5C2,5,2,5,2,5ZM4,3C2.89543,3,2,3.895431,2,5C2,5,4,5,4,5C4,5,4,5,4,5C4,5,4,3,4,3C4,3,4,3,4,3ZM11,3.585786C10.62493,3.210713,10.11622,3,9.58579,3C9.58579,3,9.58579,5,9.58579,5C9.58579,5,9.58579,5,9.58579,5C9.58579,5,11,3.585786,11,3.585786C11,3.585786,11,3.585786,11,3.585786Z" fill="#FFFFFF" fill-opacity="1"/></g></g></svg>