<svg xmlns="http://www.w3.org/2000/svg" xmlns:xlink="http://www.w3.org/1999/xlink" fill="none" version="1.1" width="24" height="24" viewBox="0 0 24 24"><defs><clipPath id="master_svg0_0_89"><rect x="0" y="0" width="24" height="24" rx="0"/></clipPath></defs><g clip-path="url(#master_svg0_0_89)"><g><path d="M4,5C4,5,20,5,20,5C20,5,20,3,20,3C20,3,4,3,4,3C4,3,4,5,4,5C4,5,4,5,4,5ZM20,5C20,5,20,19,20,19C20,19,22,19,22,19C22,19,22,5,22,5C22,5,20,5,20,5C20,5,20,5,20,5ZM20,19C20,19,4,19,4,19C4,19,4,21,4,21C4,21,20,21,20,21C20,21,20,19,20,19C20,19,20,19,20,19ZM4,19C4,19,4,5,4,5C4,5,2,5,2,5C2,5,2,19,2,19C2,19,4,19,4,19C4,19,4,19,4,19ZM4,19C4,19,4,19,4,19C4,19,2,19,2,19C2,20.1046,2.895432,21,4,21C4,21,4,19,4,19C4,19,4,19,4,19ZM20,19C20,19,20,21,20,21C21.1046,21,22,20.1046,22,19C22,19,20,19,20,19C20,19,20,19,20,19ZM20,5C20,5,22,5,22,5C22,3.89543,21.1046,3,20,3C20,3,20,5,20,5C20,5,20,5,20,5ZM4,3C2.895431,3,2,3.895431,2,5C2,5,4,5,4,5C4,5,4,3,4,3C4,3,4,3,4,3Z" fill="#FFFFFF" fill-opacity="1"/></g><g><path d="M16.209980449676515,13.790031883850098C16.209980449676515,13.790031883850098,15.502880449676514,13.082921883850098,15.502880449676514,13.082921883850098C15.502880449676514,13.082921883850098,15.502880449676514,13.082921883850098,15.502880449676514,13.082921883850098C15.502880449676514,13.082921883850098,16.209980449676515,13.790031883850098,16.209980449676515,13.790031883850098C16.209980449676515,13.790031883850098,16.209980449676515,13.790031883850098,16.209980449676515,13.790031883850098ZM13.298980449676513,15.158771883850097C13.298980449676513,15.158771883850097,12.530780449676513,15.798961883850097,12.530780449676513,15.798961883850097C12.530780449676513,15.798961883850097,12.530780449676513,15.798961883850097,12.530780449676513,15.798961883850097C12.530780449676513,15.798961883850097,13.298980449676513,15.158771883850097,13.298980449676513,15.158771883850097C13.298980449676513,15.158771883850097,13.298980449676513,15.158771883850097,13.298980449676513,15.158771883850097ZM9.757460449676515,10.908951883850097C9.757460449676515,10.908951883850097,10.525680449676514,10.268771883850098,10.525680449676514,10.268771883850098C10.525680449676514,10.268771883850098,10.525680449676514,10.268771883850098,10.525680449676514,10.268771883850098C10.525680449676514,10.268771883850098,9.757460449676515,10.908951883850097,9.757460449676515,10.908951883850097C9.757460449676515,10.908951883850097,9.757460449676515,10.908951883850097,9.757460449676515,10.908951883850097ZM8.229990449676514,10.898351883850097C8.229990449676514,10.898351883850097,8.989240449676513,11.549141883850098,8.989240449676513,11.549141883850098C8.989240449676513,11.549141883850098,8.989240449676513,11.549141883850098,8.989240449676513,11.549141883850098C8.989240449676513,11.549141883850098,8.229990449676514,10.898351883850097,8.229990449676514,10.898351883850097C8.229990449676514,10.898351883850097,8.229990449676514,10.898351883850097,8.229990449676514,10.898351883850097ZM2.2407434496765135,16.349211883850096C1.8813204496765137,16.7685318838501,1.9298800496765136,17.399831883850098,2.349209449676514,17.759261883850098C2.7685344496765136,18.118681883850098,3.3998304496765135,18.0701218838501,3.7592604496765136,17.650791883850097C3.7592604496765136,17.650791883850097,2.2407434496765135,16.349211883850096,2.2407434496765135,16.349211883850096C2.2407434496765135,16.349211883850096,2.2407434496765135,16.349211883850096,2.2407434496765135,16.349211883850096ZM17.697980449676514,13.872441883850097C17.697980449676514,13.872441883850097,18.478780449676513,13.247741883850097,18.478780449676513,13.247741883850097C18.478780449676513,13.247741883850097,18.478780449676513,13.247741883850097,18.478780449676513,13.247741883850097C18.478780449676513,13.247741883850097,17.697980449676514,13.872441883850097,17.697980449676514,13.872441883850097C17.697980449676514,13.872441883850097,17.697980449676514,13.872441883850097,17.697980449676514,13.872441883850097ZM20.219080449676515,18.624691883850097C20.564080449676513,19.055961883850095,21.193380449676514,19.1258818838501,21.624680449676514,18.780871883850097C22.055980449676515,18.435861883850098,22.125880449676515,17.806571883850097,21.780880449676513,17.3753018838501C21.780880449676513,17.3753018838501,20.219080449676515,18.624691883850097,20.219080449676515,18.624691883850097C20.219080449676515,18.624691883850097,20.219080449676515,18.624691883850097,20.219080449676515,18.624691883850097ZM15.502880449676514,13.082921883850098C15.502880449676514,13.082921883850098,14.067180449676513,14.518591883850098,14.067180449676513,14.518591883850098C14.067180449676513,14.518591883850098,15.481380449676514,15.932801883850097,15.481380449676514,15.932801883850097C15.481380449676514,15.932801883850097,16.91708044967651,14.497131883850098,16.91708044967651,14.497131883850098C16.91708044967651,14.497131883850098,15.502880449676514,13.082921883850098,15.502880449676514,13.082921883850098C15.502880449676514,13.082921883850098,15.502880449676514,13.082921883850098,15.502880449676514,13.082921883850098ZM14.067180449676513,14.518591883850098C14.067180449676513,14.518591883850098,10.525680449676514,10.268771883850098,10.525680449676514,10.268771883850098C10.525680449676514,10.268771883850098,8.989240449676513,11.549141883850098,8.989240449676513,11.549141883850098C8.989240449676513,11.549141883850098,12.530780449676513,15.798961883850097,12.530780449676513,15.798961883850097C12.530780449676513,15.798961883850097,14.067180449676513,14.518591883850098,14.067180449676513,14.518591883850098C14.067180449676513,14.518591883850098,14.067180449676513,14.518591883850098,14.067180449676513,14.518591883850098ZM7.4707304496765135,10.247558883850097C7.4707304496765135,10.247558883850097,2.2407434496765135,16.349211883850096,2.2407434496765135,16.349211883850096C2.2407434496765135,16.349211883850096,3.7592604496765136,17.650791883850097,3.7592604496765136,17.650791883850097C3.7592604496765136,17.650791883850097,8.989240449676513,11.549141883850098,8.989240449676513,11.549141883850098C8.989240449676513,11.549141883850098,7.4707304496765135,10.247558883850097,7.4707304496765135,10.247558883850097C7.4707304496765135,10.247558883850097,7.4707304496765135,10.247558883850097,7.4707304496765135,10.247558883850097ZM16.91708044967651,14.497131883850098C16.91708044967651,14.497131883850098,20.219080449676515,18.624691883850097,20.219080449676515,18.624691883850097C20.219080449676515,18.624691883850097,21.780880449676513,17.3753018838501,21.780880449676513,17.3753018838501C21.780880449676513,17.3753018838501,18.478780449676513,13.247741883850097,18.478780449676513,13.247741883850097C18.478780449676513,13.247741883850097,16.91708044967651,14.497131883850098,16.91708044967651,14.497131883850098C16.91708044967651,14.497131883850098,16.91708044967651,14.497131883850098,16.91708044967651,14.497131883850098ZM10.525680449676514,10.268771883850098C9.733310449676512,9.317920883850098,8.276230449676515,9.307810883850097,7.4707304496765135,10.247558883850097C7.4707304496765135,10.247558883850097,8.989240449676513,11.549141883850098,8.989240449676513,11.549141883850098C8.989240449676513,11.549141883850098,8.989240449676513,11.549141883850098,8.989240449676513,11.549141883850098C8.989240449676513,11.549141883850098,10.525680449676514,10.268771883850098,10.525680449676514,10.268771883850098C10.525680449676514,10.268771883850098,10.525680449676514,10.268771883850098,10.525680449676514,10.268771883850098ZM14.067180449676513,14.518591883850098C14.067180449676513,14.518591883850098,14.067180449676513,14.518591883850098,14.067180449676513,14.518591883850098C14.067180449676513,14.518591883850098,12.530780449676513,15.798961883850097,12.530780449676513,15.798961883850097C13.283680449676513,16.702431883850096,14.649780449676514,16.7644018838501,15.481380449676514,15.932801883850097C15.481380449676514,15.932801883850097,14.067180449676513,14.518591883850098,14.067180449676513,14.518591883850098C14.067180449676513,14.518591883850098,14.067180449676513,14.518591883850098,14.067180449676513,14.518591883850098ZM16.91708044967651,14.497131883850098C16.91708044967651,14.497131883850098,16.91708044967651,14.497131883850098,16.91708044967651,14.497131883850098C16.91708044967651,14.497131883850098,18.478780449676513,13.247741883850097,18.478780449676513,13.247741883850097C17.734180449676515,12.316931883850097,16.345780449676514,12.240031883850097,15.502880449676514,13.082921883850098C15.502880449676514,13.082921883850098,16.91708044967651,14.497131883850098,16.91708044967651,14.497131883850098C16.91708044967651,14.497131883850098,16.91708044967651,14.497131883850098,16.91708044967651,14.497131883850098Z" fill="#FFFFFF" fill-opacity="1"/></g><g><path d="M15,9C15,9,13,9,13,9C13,10.104569999999999,13.895431,11,15,11C15,11,15,9,15,9C15,9,15,9,15,9ZM15,9C15,9,15,11,15,11C16.10457,11,17,10.104569999999999,17,9C17,9,15,9,15,9C15,9,15,9,15,9ZM15,9C15,9,17,9,17,9C17,7.895431,16.10457,7,15,7C15,7,15,9,15,9C15,9,15,9,15,9ZM15,7C13.895431,7,13,7.895431,13,9C13,9,15,9,15,9C15,9,15,7,15,7C15,7,15,7,15,7Z" fill="#FFFFFF" fill-opacity="1"/></g></g></svg>