<svg xmlns="http://www.w3.org/2000/svg" xmlns:xlink="http://www.w3.org/1999/xlink" fill="none" version="1.1" width="16.500207901000977" height="21.781005859375" viewBox="0 0 16.500207901000977 21.781005859375"><g><path d="M10.5164,0.729803C9.02108,0.42339899999999997,7.47911,0.42339899999999997,5.98374,0.729803C5.33693,0.862336,4.83888,1.380077,4.73151,2.03153L4.67729,2.36053C4.22215,5.12222,4.22215,7.93979,4.67729,10.7015L4.73151,11.0305C4.83888,11.6819,5.33693,12.1997,5.98374,12.3322C7.47911,12.6386,9.02108,12.6386,10.5165,12.3322C11.1633,12.1997,11.6613,11.6819,11.7687,11.0305L11.8229,10.7015C12.278,7.93979,12.278,5.12222,11.8229,2.36053L11.7687,2.03153C11.6613,1.3800759999999999,11.1633,0.862336,10.5164,0.729803ZM6.28483,2.1992700000000003C7.58154,1.93358,8.91865,1.93358,10.21535,2.1992700000000003C10.25321,2.20703,10.28235,2.23733,10.28864,2.27545L10.34286,2.60445C10.7714,5.20461,10.7714,7.8574,10.34286,10.45756L10.28864,10.7866C10.28235,10.8247,10.2532,10.855,10.21535,10.8627C8.91865,11.1284,7.58154,11.1284,6.28483,10.8627C6.24698,10.855,6.21783,10.8247,6.21155,10.7866L6.15733,10.45756C5.72881,7.8574,5.72881,5.20461,6.15733,2.60445L6.21155,2.27545C6.21783,2.23733,6.24698,2.20703,6.28483,2.1992700000000003ZM1.99268,9.92579C1.93456,9.51567,1.55499,9.23031,1.14487,9.28843C0.734754,9.34654,0.4493989,9.72612,0.50751254,10.13623L0.95802,13.3155C1.17452,14.8434,2.38565,16.038,3.91635,16.2335C5.1066,16.3856,6.30284,16.4747,7.50012,16.501L7.50012,20.531C7.50012,20.9452,7.83591,21.281,8.250119999999999,21.281C8.66434,21.281,9.00012,20.9452,9.00012,20.531L9.00012,16.501C10.19738,16.4747,11.3936,16.3856,12.5838,16.2335C14.1145,16.038,15.3257,14.8434,15.5422,13.3155L15.9927,10.13623C16.050800000000002,9.72612,15.7654,9.34654,15.3553,9.28843C14.9452,9.23031,14.5656,9.51567,14.5075,9.92579L14.057,13.1051C13.9353,13.9641,13.2544,14.6357,12.3938,14.7456C9.6425,15.0971,6.85769,15.0971,4.1064,14.7456C3.24582,14.6357,2.5649,13.9641,2.44318,13.1051L1.99268,9.92579Z" fill-rule="evenodd" fill="#000000" fill-opacity="1"/><path d="M4.795,0.8394360000000001Q4.34396,1.308297,4.23817,1.95022L4.238160000000001,1.95023L4.18394,2.27922Q3.48323,6.531,4.18394,10.7828L4.23817,11.1118Q4.3439700000000006,11.7537,4.79499,12.2226Q5.24605,12.6915,5.88338,12.822Q8.250070000000001,13.307,10.6168,12.822Q11.2542,12.6915,11.7052,12.2226Q12.1562,11.7537,12.262,11.1118L12.3162,10.7828Q13.0169,6.53099,12.3162,2.27925L12.262,1.9502Q12.1562,1.3082690000000001,11.7052,0.839433Q11.2542,0.370564,10.6168,0.239981Q8.25011,-0.24496799999999996,5.88337,0.23998000000000003Q5.24603,0.37057300000000004,4.795,0.8394360000000001ZM5.17064,2.44184L5.22486,2.1128299999999998Q5.34718,1.3706230000000001,6.08411,1.2196259999999999Q8.25011,0.775809,10.41603,1.2196259999999999Q11.153,1.370609,11.2754,2.11286L11.3295,2.4418100000000003Q12.0034,6.53099,11.3296,10.6202L11.2753,10.9492Q11.153,11.6914,10.41616,11.8424Q8.25008,12.2862,6.0841,11.8424Q5.3472,11.6914,5.22485,10.9492L5.17064,10.6202Q4.49672,6.531,5.17064,2.44184ZM10.8362,10.5389Q11.4967,6.53101,10.8362,2.52314L10.782,2.19415L10.782,2.19404Q10.7155,1.79139,10.31575,1.70945Q8.2501,1.286208,6.18447,1.70945Q5.78455,1.79144,5.7182,2.1941699999999997L5.66398,2.52315Q5.00347,6.531,5.66398,10.5389L5.7182,10.8679Q5.78468,11.2712,6.18515,11.3527Q8.2501,11.7758,10.31572,11.3525Q10.7154,11.2712,10.782,10.868L10.8362,10.5389ZM9.84151,2.63717Q8.25011,2.35891,6.65868,2.63717L6.65068,2.68575Q6.01696,6.531,6.65068,10.37626L6.65867,10.42479Q8.250350000000001,10.703,9.84152,10.4248L9.84951,10.37627Q10.48326,6.53101,9.84952,2.68576L9.84151,2.63717ZM0.250946,9.27988Q-0.060185000000000044,9.69374,0.012458000000000025,10.20638L0.4629652,13.3856Q0.649034,14.6988,1.59324,15.6301Q2.53745,16.5614,3.85297,16.7295Q5.42049,16.9298,7.00012,16.9867L7.00012,20.531Q7.00012,21.0488,7.36624,21.4149Q7.73236,21.781,8.250119999999999,21.781Q8.76789,21.781,9.13401,21.4149Q9.50012,21.0488,9.50012,20.531L9.50012,16.9867Q11.0797,16.9298,12.6471,16.7295Q13.9627,16.5614,14.9069,15.6301Q15.8512,14.6988,16.037300000000002,13.3856L16.4878,10.20637Q16.5604,9.69372,16.249200000000002,9.27986Q15.9381,8.86601,15.4255,8.79338Q14.9128,8.72073,14.4989,9.03186Q14.0851,9.343,14.0124,9.85564L13.5619,13.035Q13.4944,13.512,13.1514,13.8503Q12.8084,14.1886,12.3304,14.2496Q8.2501,14.7709,4.16974,14.2496Q3.69183,14.1886,3.34883,13.8503Q3.00583,13.512,2.93823,13.035L2.48773,9.85563Q2.4150799999999997,9.34299,2.00123,9.03186Q1.58737,8.72073,1.074725,8.79338Q0.5620779,8.86601,0.250946,9.27988ZM1.4530750000000001,13.2453L1.002567,10.06608Q0.988039,9.96355,1.0502639999999999,9.88078Q1.112489,9.79801,1.215015,9.78349Q1.317551,9.76895,1.40032,9.83118Q1.483095,9.89341,1.497626,9.99595L1.94813,13.1752Q2.06311,13.9867,2.64661,14.5622Q3.23009,15.1378,4.0430600000000005,15.2416Q8.2501,15.7791,12.4572,15.2416Q13.2701,15.1378,13.8536,14.5622Q14.4371,13.9867,14.5521,13.1752L15.0026,9.99594Q15.0171,9.89341,15.0999,9.83118Q15.1826,9.76896,15.2851,9.78348Q15.5327,9.81856,15.4976,10.0661L15.0471,13.2454Q14.9085,14.224,14.2047,14.9182Q13.501,15.6123,12.5205,15.7375Q10.7627,15.9622,8.98914,16.0011L8.50012,16.0119L8.50012,20.531Q8.50012,20.781,8.250119999999999,20.781Q8.000119999999999,20.781,8.000119999999999,20.531L8.000119999999999,16.0119L7.5111,16.0011Q5.73754,15.9622,3.97973,15.7375Q2.9992,15.6123,2.29548,14.9182Q1.59175,14.224,1.4530750000000001,13.2453Z" fill-rule="evenodd" fill="#000000" fill-opacity="1"/></g></svg>