<svg xmlns="http://www.w3.org/2000/svg" xmlns:xlink="http://www.w3.org/1999/xlink" fill="none" version="1.1" width="24" height="24" viewBox="0 0 24 24"><defs><clipPath id="master_svg0_0_889"><rect x="0" y="0" width="24" height="24" rx="0"/></clipPath></defs><g clip-path="url(#master_svg0_0_889)"><g></g><g><path d="M12,8C13.1,8,14,7.1,14,6C14,4.9,13.1,4,12,4C10.9,4,10,4.9,10,6C10,7.1,10.9,8,12,8C12,8,12,8,12,8ZM12,10C10.9,10,10,10.9,10,12C10,13.1,10.9,14,12,14C13.1,14,14,13.1,14,12C14,10.9,13.1,10,12,10C12,10,12,10,12,10ZM12,16C10.9,16,10,16.9,10,18C10,19.1,10.9,20,12,20C13.1,20,14,19.1,14,18C14,16.9,13.1,16,12,16C12,16,12,16,12,16Z" fill="#000000" fill-opacity="1"/></g></g></svg>