<svg xmlns="http://www.w3.org/2000/svg" xmlns:xlink="http://www.w3.org/1999/xlink" fill="none" version="1.1" width="24" height="24" viewBox="0 0 24 24"><defs><clipPath id="master_svg0_0_139"><rect x="0" y="0" width="24" height="24" rx="0"/></clipPath></defs><g clip-path="url(#master_svg0_0_139)"><g><path d="M20,12C20,16.418300000000002,16.418300000000002,20,12,20C12,20,12,22,12,22C17.5228,22,22,17.5228,22,12C22,12,20,12,20,12C20,12,20,12,20,12ZM12,20C7.58172,20,4,16.418300000000002,4,12C4,12,2,12,2,12C2,17.5228,6.47715,22,12,22C12,22,12,20,12,20C12,20,12,20,12,20ZM4,12C4,7.58172,7.58172,4,12,4C12,4,12,2,12,2C6.47715,2,2,6.47715,2,12C2,12,4,12,4,12C4,12,4,12,4,12ZM12,4C16.418300000000002,4,20,7.58172,20,12C20,12,22,12,22,12C22,6.47715,17.5228,2,12,2C12,2,12,4,12,4C12,4,12,4,12,4Z" fill="#FFFFFF" fill-opacity="1"/></g><g><path d="M15,9C15,8.447715,14.55228,8,14,8C13.447715,8,13,8.447715,13,9C13,9,15,9,15,9C15,9,15,9,15,9ZM13,15C13,15.55228,13.447716,16,14,16C14.55228,16,15,15.55228,15,15C15,15,13,15,13,15C13,15,13,15,13,15ZM13,9C13,9,13,15,13,15C13,15,15,15,15,15C15,15,15,9,15,9C15,9,13,9,13,9C13,9,13,9,13,9Z" fill="#FFFFFF" fill-opacity="1"/></g><g><path d="M11,9C11,8.447715,10.55228,8,10,8C9.447715,8,9,8.447715,9,9C9,9,11,9,11,9C11,9,11,9,11,9ZM9,15C9,15.55228,9.447716,16,10,16C10.55228,16,11,15.55228,11,15C11,15,9,15,9,15C9,15,9,15,9,15ZM9,9C9,9,9,15,9,15C9,15,11,15,11,15C11,15,11,9,11,9C11,9,9,9,9,9C9,9,9,9,9,9Z" fill="#FFFFFF" fill-opacity="1"/></g></g></svg>