<svg xmlns="http://www.w3.org/2000/svg" xmlns:xlink="http://www.w3.org/1999/xlink" fill="none" version="1.1" width="24" height="24" viewBox="0 0 24 24"><defs><clipPath id="master_svg0_0_135"><rect x="0" y="0" width="24" height="24" rx="0"/></clipPath></defs><g clip-path="url(#master_svg0_0_135)"><g><path d="M20,12C20,16.418300000000002,16.418300000000002,20,12,20C12,20,12,22,12,22C17.5228,22,22,17.5228,22,12C22,12,20,12,20,12C20,12,20,12,20,12ZM12,20C7.58172,20,4,16.418300000000002,4,12C4,12,2,12,2,12C2,17.5228,6.47715,22,12,22C12,22,12,20,12,20C12,20,12,20,12,20ZM4,12C4,7.58172,7.58172,4,12,4C12,4,12,2,12,2C6.47715,2,2,6.47715,2,12C2,12,4,12,4,12C4,12,4,12,4,12ZM12,4C16.418300000000002,4,20,7.58172,20,12C20,12,22,12,22,12C22,6.47715,17.5228,2,12,2C12,2,12,4,12,4C12,4,12,4,12,4Z" fill="#FFFFFF" fill-opacity="1"/></g><g><path d="M15,11.999998569488525C15,11.999998569488525,15.5145,12.857488569488526,15.5145,12.857488569488526C15.8157,12.676768569488527,16,12.351258569488525,16,11.999998569488525C16,11.648738569488525,15.8157,11.323228569488526,15.5145,11.142508569488525C15.5145,11.142508569488525,15,11.999998569488525,15,11.999998569488525C15,11.999998569488525,15,11.999998569488525,15,11.999998569488525ZM10,8.999998569488525C10,8.999998569488525,10.5145,8.142506569488525,10.5145,8.142506569488525C10.20556,7.957149869488525,9.82081,7.952289969488525,9.507301,8.129799569488526C9.193793,8.307305569488525,9,8.639727569488524,9,8.999998569488525C9,8.999998569488525,10,8.999998569488525,10,8.999998569488525C10,8.999998569488525,10,8.999998569488525,10,8.999998569488525ZM10,14.999998569488525C10,14.999998569488525,9,14.999998569488525,9,14.999998569488525C9,15.360268569488525,9.193793,15.692688569488524,9.507301,15.870198569488526C9.82081,16.047708569488528,10.20556,16.042848569488527,10.5145,15.857488569488526C10.5145,15.857488569488526,10,14.999998569488525,10,14.999998569488525C10,14.999998569488525,10,14.999998569488525,10,14.999998569488525ZM15.5145,11.142508569488525C15.5145,11.142508569488525,10.5145,8.142506569488525,10.5145,8.142506569488525C10.5145,8.142506569488525,9.485504,9.857488569488526,9.485504,9.857488569488526C9.485504,9.857488569488526,14.4855,12.857488569488526,14.4855,12.857488569488526C14.4855,12.857488569488526,15.5145,11.142508569488525,15.5145,11.142508569488525C15.5145,11.142508569488525,15.5145,11.142508569488525,15.5145,11.142508569488525ZM9,8.999998569488525C9,8.999998569488525,9,14.999998569488525,9,14.999998569488525C9,14.999998569488525,11,14.999998569488525,11,14.999998569488525C11,14.999998569488525,11,8.999998569488525,11,8.999998569488525C11,8.999998569488525,9,8.999998569488525,9,8.999998569488525C9,8.999998569488525,9,8.999998569488525,9,8.999998569488525ZM10.5145,15.857488569488526C10.5145,15.857488569488526,15.5145,12.857488569488526,15.5145,12.857488569488526C15.5145,12.857488569488526,14.4855,11.142508569488525,14.4855,11.142508569488525C14.4855,11.142508569488525,9.485504,14.142508569488525,9.485504,14.142508569488525C9.485504,14.142508569488525,10.5145,15.857488569488526,10.5145,15.857488569488526C10.5145,15.857488569488526,10.5145,15.857488569488526,10.5145,15.857488569488526Z" fill="#FFFFFF" fill-opacity="1"/></g></g></svg>