<svg xmlns="http://www.w3.org/2000/svg" xmlns:xlink="http://www.w3.org/1999/xlink" fill="none" version="1.1" width="24" height="24" viewBox="0 0 24 24"><defs><clipPath id="master_svg0_0_200"><rect x="0" y="0" width="24" height="24" rx="0"/></clipPath></defs><g clip-path="url(#master_svg0_0_200)"><g></g><g><path d="M16.5,12C17.880000000000003,12,18.99,10.879999999999999,18.99,9.5C18.99,8.120000000000001,17.880000000000003,7,16.5,7C15.12,7,14,8.120000000000001,14,9.5C14,10.879999999999999,15.12,12,16.5,12C16.5,12,16.5,12,16.5,12ZM9,11C10.66,11,11.99,9.66,11.99,8C11.99,6.34,10.66,5,9,5C7.34,5,6,6.34,6,8C6,9.66,7.34,11,9,11C9,11,9,11,9,11ZM16.5,14C14.67,14,11,14.92,11,16.75C11,16.75,11,19,11,19C11,19,22,19,22,19C22,19,22,16.75,22,16.75C22,14.92,18.33,14,16.5,14C16.5,14,16.5,14,16.5,14ZM9,13C6.67,13,2,14.17,2,16.5C2,16.5,2,19,2,19C2,19,9,19,9,19C9,19,9,16.75,9,16.75C9,15.9,9.33,14.41,11.37,13.28C10.5,13.1,9.66,13,9,13C9,13,9,13,9,13Z" fill="#ADB5BD" fill-opacity="1"/></g></g></svg>